<svg width="40" height="40" viewBox="0 0 40 40" fill="none" xmlns="http://www.w3.org/2000/svg">
<circle cx="20" cy="20" r="19.5" stroke="#D8BFA9"/>
<path d="M16.9534 12.9276C16.9534 13.4966 16.9534 16.0467 16.9534 16.0467H14.6667V19.8614H16.9534V31.2H21.648V19.8614H24.7988C24.7988 19.8614 25.0938 18.0331 25.2361 16.0309C24.8251 16.0309 21.6638 16.0309 21.6638 16.0309C21.6638 16.0309 21.6638 13.8127 21.6638 13.4228C21.6638 13.0329 22.1749 12.5061 22.6807 12.5061C23.1865 12.5061 24.2508 12.5061 25.2414 12.5061C25.2414 11.9844 25.2414 10.193 25.2414 8.53333C23.9241 8.53333 22.4225 8.53333 21.7639 8.53333C16.8375 8.53859 16.9534 12.3585 16.9534 12.9276Z" fill="#D8BFA9"/>
</svg>
