<svg width="30" height="30" viewBox="0 0 30 30" fill="none" xmlns="http://www.w3.org/2000/svg">
<circle cx="15" cy="15" r="14.5" stroke="#F6F6F5"/>
<path d="M12.7145 9.69582C12.7145 10.1226 12.7145 12.0352 12.7145 12.0352H10.9995V14.8962H12.7145V23.4001H16.2354V14.8962H18.5985C18.5985 14.8962 18.8198 13.525 18.9265 12.0233C18.6183 12.0233 16.2473 12.0233 16.2473 12.0233C16.2473 12.0233 16.2473 10.3597 16.2473 10.0673C16.2473 9.77486 16.6306 9.37969 17.01 9.37969C17.3893 9.37969 18.1876 9.37969 18.9305 9.37969C18.9305 8.98848 18.9305 7.64492 18.9305 6.40015C17.9426 6.40015 16.8163 6.40015 16.3224 6.40015C12.6276 6.4041 12.7145 9.26904 12.7145 9.69582Z" fill="#F6F6F5"/>
</svg>
