<svg width="30" height="30" viewBox="0 0 30 30" fill="none" xmlns="http://www.w3.org/2000/svg">
<circle cx="15" cy="15" r="14.5" stroke="#F6F6F5"/>
<path d="M15.3425 6.4002C10.7278 6.4002 8.40088 9.7264 8.40088 12.5001C8.40088 14.1795 9.03341 15.6737 10.3899 16.2306C10.6123 16.3219 10.8117 16.2334 10.8762 15.9861C10.921 15.8148 11.0272 15.3824 11.0746 15.2025C11.1396 14.9576 11.1144 14.8717 10.9349 14.6582C10.5438 14.1944 10.2938 13.5939 10.2938 12.7434C10.2938 10.2756 12.1303 8.06661 15.076 8.06661C17.6843 8.06661 19.1174 9.66884 19.1174 11.8086C19.1174 14.6241 17.878 17.0004 16.038 17.0004C15.0218 17.0004 14.2613 16.1555 14.505 15.1195C14.797 13.8824 15.3626 12.5474 15.3626 11.6545C15.3626 10.8553 14.9358 10.1886 14.0525 10.1886C13.0138 10.1886 12.1793 11.2689 12.1793 12.716C12.1793 13.6377 12.4892 14.2611 12.4892 14.2611C12.4892 14.2611 11.4262 18.7891 11.2398 19.582C10.8687 21.1612 11.184 23.0973 11.2108 23.2928C11.2264 23.4086 11.3745 23.4362 11.4415 23.3486C11.5373 23.2228 12.7746 21.6874 13.1951 20.1532C13.3142 19.7188 13.8784 17.4691 13.8784 17.4691C14.2159 18.1163 15.2021 18.6863 16.251 18.6863C19.3734 18.6863 21.4918 15.8246 21.4918 11.9941C21.4917 9.0976 19.0514 6.40015 15.3425 6.40015V6.4002Z" fill="#F6F6F5"/>
</svg>
