<svg width="40" height="40" viewBox="0 0 40 40" fill="none" xmlns="http://www.w3.org/2000/svg">
<circle cx="20" cy="20" r="19.5" stroke="#D8BFA9"/>
<path d="M20.4555 8.5334C14.3025 8.5334 11.2 12.9683 11.2 16.6666C11.2 18.9058 12.0433 20.8981 13.852 21.6406C14.1485 21.7624 14.4143 21.6443 14.5003 21.3146C14.5601 21.0862 14.7018 20.5097 14.7649 20.2698C14.8516 19.9433 14.818 19.8287 14.5787 19.5441C14.0571 18.9256 13.7238 18.125 13.7238 16.9909C13.7238 13.7007 16.1725 10.7553 20.1001 10.7553C23.5779 10.7553 25.4886 12.8916 25.4886 15.7447C25.4886 19.4986 23.836 22.667 21.3828 22.667C20.0279 22.667 19.0138 21.5405 19.3388 20.1591C19.7282 18.5097 20.4822 16.7297 20.4822 15.5391C20.4822 14.4735 19.9132 13.5846 18.7355 13.5846C17.3505 13.5846 16.2379 15.025 16.2379 16.9545C16.2379 18.1834 16.651 19.0147 16.651 19.0147C16.651 19.0147 15.2337 25.0519 14.9852 26.1092C14.4904 28.2148 14.9108 30.7961 14.9465 31.0568C14.9673 31.2113 15.1648 31.248 15.2541 31.1312C15.3819 30.9635 17.0315 28.9163 17.5923 26.8707C17.751 26.2915 18.5034 23.292 18.5034 23.292C18.9532 24.1548 20.2683 24.9148 21.6667 24.9148C25.83 24.9148 28.6545 21.0992 28.6545 15.9919C28.6544 12.1299 25.4007 8.53333 20.4555 8.53333V8.5334Z" fill="#D8BFA9"/>
</svg>
