<svg width="40" height="40" viewBox="0 0 40 40" fill="none" xmlns="http://www.w3.org/2000/svg">
<circle cx="20" cy="20" r="19.5" stroke="#B8926B"/>
<path d="M8.8314 27.1047C11.3218 27.3287 13.5659 26.7016 15.6084 25.1697C13.4718 24.9816 12.043 23.9156 11.2457 21.9179C11.9444 22.003 12.5984 22.0254 13.2927 21.8372C10.9904 21.1206 9.76307 19.6156 9.59734 17.1879C10.2871 17.5104 10.9366 17.7433 11.7025 17.7522C10.3364 16.7265 9.63765 15.3962 9.66453 13.721C9.67797 12.9506 9.88401 12.2249 10.2916 11.5396C12.8223 14.5004 15.9981 16.1397 19.9084 16.413C19.886 16.2428 19.8726 16.1084 19.8546 15.9695C19.5321 13.4881 21.1446 11.2306 23.6082 10.7603C25.1535 10.4646 26.5196 10.8722 27.6753 11.9383C27.8544 12.0995 28.0067 12.1354 28.2307 12.0771C29.131 11.8487 29.9865 11.5172 30.8152 11.0693C30.4971 12.1174 29.8432 12.9058 28.9563 13.5687C29.1579 13.5329 29.3639 13.506 29.5655 13.4657C29.776 13.4209 29.9865 13.3716 30.197 13.3134C30.3986 13.2596 30.5957 13.1969 30.7928 13.1297C30.9943 13.0625 31.1959 12.9864 31.4333 12.9461C31.3168 13.1073 31.2048 13.2775 31.0794 13.4343C30.5598 14.0928 29.9596 14.6706 29.3012 15.1857C29.234 15.2394 29.1758 15.3559 29.1803 15.4365C29.2161 17.0266 28.9921 18.5764 28.477 20.0814C27.4647 23.0466 25.6999 25.4474 23.0528 27.163C21.7448 28.0095 20.316 28.5649 18.7886 28.8874C17.2746 29.2055 15.7517 29.2637 14.2243 29.0845C12.6924 28.9054 11.2367 28.453 9.86609 27.7453C9.50328 27.5616 9.1539 27.3556 8.80005 27.1585C8.81349 27.1406 8.82244 27.1226 8.8314 27.1047Z" fill="#B8926B"/>
</svg>
