<svg width="30" height="30" viewBox="0 0 30 30" fill="none" xmlns="http://www.w3.org/2000/svg">
<circle cx="15" cy="15" r="14.5" stroke="#F6F6F5"/>
<path d="M6.62264 20.3286C8.49045 20.4965 10.1735 20.0262 11.7054 18.8773C10.103 18.7362 9.03131 17.9367 8.43334 16.4384C8.9574 16.5023 9.44787 16.519 9.96858 16.378C8.24186 15.8405 7.32139 14.7117 7.19709 12.8909C7.71443 13.1328 8.20154 13.3075 8.776 13.3142C7.75139 12.5449 7.22732 11.5472 7.24748 10.2908C7.25756 9.71295 7.41209 9.16874 7.71779 8.65475C9.61584 10.8753 11.9976 12.1048 14.9304 12.3098C14.9136 12.1821 14.9035 12.0813 14.8901 11.9772C14.6482 10.1161 15.8576 8.42295 17.7052 8.07022C18.8642 7.8485 19.8888 8.1542 20.7555 8.95374C20.8899 9.07467 21.0041 9.10155 21.1721 9.05788C21.8473 8.88655 22.489 8.63795 23.1105 8.30202C22.8719 9.08811 22.3815 9.67936 21.7163 10.1765C21.8675 10.1497 22.022 10.1295 22.1732 10.0993C22.3311 10.0657 22.489 10.0287 22.6469 9.98506C22.798 9.94475 22.9459 9.89772 23.0937 9.84733C23.2448 9.79694 23.396 9.73983 23.5741 9.70959C23.4867 9.83053 23.4027 9.95819 23.3087 10.0758C22.919 10.5696 22.4688 11.003 21.975 11.3893C21.9246 11.4296 21.8809 11.5169 21.8843 11.5774C21.9112 12.77 21.7432 13.9323 21.3569 15.0611C20.5976 17.285 19.2741 19.0856 17.2887 20.3722C16.3077 21.0072 15.2361 21.4237 14.0905 21.6656C12.9551 21.9041 11.8129 21.9478 10.6673 21.8134C9.51842 21.679 8.42662 21.3397 7.39865 20.809C7.12654 20.6712 6.86451 20.5167 6.59912 20.3689C6.6092 20.3555 6.61592 20.342 6.62264 20.3286Z" fill="#F6F6F5"/>
</svg>
