<svg width="30" height="30" viewBox="0 0 30 30" fill="none" xmlns="http://www.w3.org/2000/svg">
<circle cx="15" cy="15" r="14.5" stroke="#F6F6F5"/>
<path d="M15.2073 20.9469C13.297 20.8867 11.4804 20.8398 9.66387 20.7696C9.27245 20.7529 8.87435 20.6926 8.49297 20.6023C7.77704 20.435 7.28191 20.0035 7.02766 19.2976C6.82359 18.7289 6.74999 18.1434 6.69646 17.5479C6.57937 16.1495 6.57937 14.7511 6.63624 13.3527C6.6697 12.5632 6.68977 11.767 6.90053 11.0009C7.02766 10.5426 7.18155 10.0943 7.5529 9.76306C7.94431 9.41179 8.40264 9.20103 8.92453 9.17761C10.3564 9.10735 11.7849 9.02037 13.2167 9.00699C15.1437 8.98692 17.074 9.01368 19.001 9.05048C19.834 9.06721 20.6737 9.1107 21.5001 9.21775C22.2561 9.31812 22.8215 9.73964 23.1226 10.4756C23.3534 11.041 23.4404 11.6332 23.4906 12.2353C23.6211 13.7441 23.6244 15.2529 23.5508 16.7617C23.514 17.5278 23.4772 18.2973 23.2598 19.0433C23.0122 19.8998 22.487 20.4651 21.6105 20.6592C21.2692 20.7328 20.9146 20.7595 20.5667 20.7729C18.7468 20.8365 16.9302 20.8934 15.2073 20.9469ZM13.3572 17.1431C14.8828 16.3536 16.3916 15.5708 17.9305 14.7712C16.3949 13.9683 14.8861 13.1821 13.3572 12.3825C13.3572 13.9783 13.3572 15.5473 13.3572 17.1431Z" fill="#F6F6F5"/>
</svg>
