<svg width="40" height="40" viewBox="0 0 40 40" fill="none" xmlns="http://www.w3.org/2000/svg">
<circle cx="20" cy="20" r="19.5" stroke="#D8BFA9"/>
<path d="M20.2776 27.929C17.7306 27.8487 15.3085 27.7863 12.8864 27.6926C12.3645 27.6703 11.8337 27.59 11.3252 27.4696C10.3706 27.2466 9.71044 26.6711 9.37143 25.73C9.09934 24.9717 9.00121 24.191 8.92984 23.3971C8.77372 21.5325 8.77372 19.668 8.84955 17.8035C8.89415 16.7508 8.92091 15.6892 9.20193 14.6677C9.37143 14.0566 9.57662 13.4589 10.0717 13.0173C10.5936 12.5489 11.2047 12.2679 11.9006 12.2366C13.8097 12.143 15.7144 12.027 17.6235 12.0092C20.1928 11.9824 22.7666 12.0181 25.3359 12.0671C26.4466 12.0895 27.5662 12.1474 28.668 12.2902C29.6761 12.424 30.4299 12.986 30.8314 13.9674C31.1391 14.7212 31.2551 15.5107 31.322 16.3136C31.496 18.3254 31.5004 20.3371 31.4023 22.3488C31.3532 23.3703 31.3042 24.3962 31.0142 25.3909C30.6842 26.5329 29.9838 27.2867 28.8152 27.5454C28.3602 27.6435 27.8874 27.6792 27.4235 27.6971C24.9969 27.7818 22.5748 27.8577 20.2776 27.929ZM17.8109 22.8573C19.8449 21.8046 21.8566 20.7608 23.9085 19.6948C21.8611 18.6242 19.8494 17.576 17.8109 16.5099C17.8109 18.6376 17.8109 20.7296 17.8109 22.8573Z" fill="#D8BFA9"/>
</svg>
